<?xml version="1.0" encoding="utf-8" ?>
<svg baseProfile="full" height="100%" version="1.1" viewBox="0,0,1000,120" width="100%" xmlns="http://www.w3.org/2000/svg" xmlns:ev="http://www.w3.org/2001/xml-events" xmlns:xlink="http://www.w3.org/1999/xlink"><defs /><rect fill="white" height="120" width="1000" x="0" y="0" /><path d="M0,0 M244.32595825195312,49.30057144165039 L244.38743591308594,49.442352294921875 L244.4681854248047,49.84343719482422 L244.5177001953125,50.61737060546875 L244.46823120117188,51.80388641357422 L244.30609130859375,53.386146545410156 L244.02651977539062,55.285675048828125 L243.6610565185547,57.40027618408203 L243.25927734375,59.63359451293945 L242.85577392578125,61.86144256591797 L242.47732543945312,63.94385528564453 L242.16793823242188,65.776123046875 L241.94065856933594,67.20465087890625 L241.8046875,68.11918640136719 L241.74607849121094,68.49908447265625 L241.73483276367188,68.51402282714844 L241.73861694335938,68.3690185546875 M238.29002380371094,46.49636459350586 L238.69329833984375,46.4241828918457 L239.59133911132812,46.34410858154297 L241.0799102783203,46.293617248535156 L243.0773468017578,46.29383850097656 L245.41757202148438,46.298828125 L247.88607788085938,46.26176071166992 L250.29025268554688,46.14802551269531 L252.50091552734375,45.947608947753906 L254.42298889160156,45.687889099121094 L255.99305725097656,45.399166107177734 L257.0640869140625,45.15610885620117 L257.6404724121094,45.0 M257.38818359375,48.01286697387695 L257.05859375,48.63783264160156 L256.56195068359375,49.739097595214844 L255.98023986816406,51.25941467285156 L255.45321655273438,52.989097595214844 L254.98265075683594,54.844573974609375 L254.54867553710938,56.76344680786133 L254.11737060546875,58.705177307128906 L253.70681762695312,60.57065963745117 L253.3549041748047,62.231666564941406 L253.1056671142578,63.56662368774414 L252.96240234375,64.49866485595703 L252.90484619140625,65.00054168701172 L252.89202880859375,65.0733642578125 L252.9038848876953,64.70713806152344 L252.9791717529297,63.89726257324219 L253.1881866455078,62.697349548339844 L253.5994415283203,61.23838806152344 L254.2556610107422,59.6831169128418 L255.16683959960938,58.18795394897461 L256.30621337890625,56.85332107543945 L257.6181335449219,55.748817443847656 L259.0283508300781,54.93112564086914 L260.45147705078125,54.45676040649414 L261.7874450683594,54.361324310302734 L262.9752502441406,54.67509460449219 L263.9554748535156,55.392696380615234 L264.67388916015625,56.48954391479492 L265.10797119140625,57.905967712402344 L265.2701110839844,59.54645538330078 L265.19696044921875,61.27507400512695 L264.9856872558594,62.960025787353516 L264.7745361328125,64.42960357666016 L264.6863098144531,65.53872680664062 L264.79962158203125,66.20814514160156 L265.02032470703125,66.49855041503906 L265.2303161621094,66.5466537475586 M271.2684326171875,56.531978607177734 L271.3177490234375,56.5410041809082 L271.41009521484375,56.72480773925781 L271.50177001953125,57.21687698364258 L271.513671875,58.10812759399414 L271.37646484375,59.34572982788086 L271.1059265136719,60.82394790649414 L270.7662353515625,62.3853759765625 L270.49346923828125,63.83455276489258 L270.373291015625,64.97663879394531 L270.42071533203125,65.68608856201172 L270.54449462890625,65.9911880493164 L270.66448974609375,66.03610229492188 M273.448974609375,49.64506530761719 L273.4117431640625,49.447166442871094 L273.42095947265625,49.23468017578125 L273.4666748046875,49.07292938232422 L273.5389099121094,49.027244567871094 M285.761474609375,56.273040771484375 L285.4166564941406,56.13615417480469 L284.7253723144531,55.98048782348633 L283.6488037109375,55.893524169921875 L282.30224609375,55.9632682800293 L280.8500671386719,56.18373489379883 L279.52362060546875,56.52680969238281 L278.56292724609375,56.96385192871094 L278.1365661621094,57.484256744384766 L278.3115539550781,58.09657669067383 L279.0877685546875,58.78839874267578 L280.3870849609375,59.5322380065918 L282.0735168457031,60.296966552734375 L283.9801330566406,61.075103759765625 L285.8807678222656,61.851619720458984 L287.5533142089844,62.61455535888672 L288.834716796875,63.33438491821289 L289.59735107421875,63.985225677490234 L289.7742919921875,64.54402160644531 L289.35162353515625,65.00738525390625 L288.3406982421875,65.3559341430664 L286.82122802734375,65.57088470458984 L284.9393615722656,65.63140869140625 L282.879638671875,65.55172729492188 L280.8352355957031,65.34573364257812 L279.0102844238281,65.05292510986328 L277.56085205078125,64.72215270996094 L276.6248779296875,64.44622039794922 L276.1654968261719,64.26911926269531 M308.4310302734375,56.7462043762207 L308.43572998046875,56.75651168823242 L308.419189453125,56.91538619995117 L308.3653259277344,57.34917068481445 L308.23345947265625,58.143924713134766 L307.99493408203125,59.27894973754883 L307.68438720703125,60.67207336425781 L307.36175537109375,62.194969177246094 L307.0947570800781,63.68928909301758 L306.95855712890625,64.99419403076172 L306.935302734375,65.99105072021484 L306.97247314453125,66.63551330566406 L307.04412841796875,66.8506088256836 L307.1310729980469,66.6209945678711 L307.2449951171875,65.95426177978516 L307.367431640625,65.17339324951172 L307.46337890625,64.54617309570312 M308.83111572265625,48.37055587768555 L308.791259765625,48.332122802734375 L308.7442932128906,48.30647277832031 L308.71160888671875,48.320552825927734 L308.72705078125,48.38230514526367 L308.8001708984375,48.45335388183594 L308.9326477050781,48.51619338989258 L309.0705871582031,48.554283142089844 L309.1751708984375,48.570274353027344 M323.0201110839844,55.39581298828125 L322.671142578125,55.219154357910156 L321.98370361328125,55.01350402832031 L320.9091491699219,54.883853912353516 L319.531494140625,54.95323181152344 L317.9692687988281,55.23358154296875 L316.420654296875,55.68641662597656 L315.111328125,56.244903564453125 L314.2601013183594,56.86794662475586 L314.0045166015625,57.52635955810547 L314.4004821777344,58.205535888671875 L315.4371032714844,58.903480529785156 L317.0007629394531,59.617801666259766 L318.91119384765625,60.36238479614258 L320.9364318847656,61.14706802368164 L322.8552551269531,61.96754837036133 L324.4510803222656,62.791683197021484 L325.5842590332031,63.575950622558594 L326.14044189453125,64.27729797363281 L326.0484924316406,64.87353515625 L325.29119873046875,65.34121704101562 L323.9486999511719,65.67430114746094 L322.1374206542969,65.8621597290039 L320.06890869140625,65.90601348876953 L317.97589111328125,65.80457305908203 L316.0865478515625,65.5757064819336 L314.58099365234375,65.24922943115234 L313.61419677734375,64.9436264038086 L313.13641357421875,64.73155975341797 M344.9365539550781,46.732242584228516 L344.96038818359375,46.948062896728516 L344.99871826171875,47.45653533935547 L345.02337646484375,48.33177947998047 L344.99981689453125,49.560394287109375 L344.8991394042969,51.10392379760742 L344.6963806152344,52.90126419067383 L344.39715576171875,54.898075103759766 L344.05181884765625,57.034812927246094 L343.7052001953125,59.2210807800293 L343.41192626953125,61.336849212646484 L343.1975402832031,63.261226654052734 L343.0404052734375,64.87193298339844 L342.92742919921875,66.08973693847656 L342.845947265625,66.89459228515625 L342.7906799316406,67.32648468017578 L342.76312255859375,67.49315643310547 M339.06927490234375,57.79877853393555 L339.2727355957031,57.83265686035156 L339.78753662109375,57.88400650024414 L340.7229919433594,57.94506072998047 L342.07794189453125,57.97429656982422 L343.77783203125,57.93837356567383 L345.6715087890625,57.796783447265625 L347.6212158203125,57.54365158081055 L349.540283203125,57.119503021240234 L351.34033203125,56.51963806152344 L352.9331359863281,55.74955749511719 L354.0986328125,55.0379753112793 L354.7630615234375,54.536251068115234 M355.37139892578125,48.93494415283203 L355.4844055175781,49.11501693725586 L355.6423645019531,49.54682922363281 L355.7713623046875,50.30409240722656 L355.7949523925781,51.3988151550293 L355.68988037109375,52.80500030517578 L355.4444580078125,54.464439392089844 L355.095947265625,56.29075241088867 L354.70111083984375,58.16089630126953 L354.2928161621094,59.91486740112305 L353.94268798828125,61.404605865478516 L353.67828369140625,62.52768325805664 L353.520751953125,63.2388916015625 L353.4803466796875,63.53363800048828 L353.5914306640625,63.41844177246094 L353.88836669921875,62.897666931152344 L354.443603515625,62.00248718261719 L355.27581787109375,60.826271057128906 L356.3797912597656,59.50693893432617 L357.67462158203125,58.194068908691406 L359.0718994140625,57.02499008178711 L360.48248291015625,56.10713195800781 L361.8543701171875,55.511653900146484 L363.1307373046875,55.279605865478516 L364.26702880859375,55.43022537231445 L365.16778564453125,55.94938278198242 L365.74530029296875,56.80204391479492 L365.9710693359375,57.9257698059082 L365.89227294921875,59.23216247558594 L365.6268005371094,60.61182403564453 L365.33502197265625,61.971656799316406 L365.1095886230469,63.23059844970703 L365.0166931152344,64.28399658203125 L365.0772705078125,65.0306167602539 L365.2783203125,65.41427612304688 L365.5128173828125,65.5138931274414 L365.70428466796875,65.46373748779297 M369.2540588378906,62.1165885925293 L369.50189208984375,62.17768096923828 L370.01513671875,62.217506408691406 L370.83673095703125,62.16417694091797 L371.92022705078125,61.94332504272461 L373.2078857421875,61.53986740112305 L374.611572265625,60.96340560913086 L376.0269775390625,60.23674011230469 L377.3319091796875,59.388267517089844 L378.4166564941406,58.4639778137207 L379.1749572753906,57.52445983886719 L379.55224609375,56.648170471191406 L379.5308837890625,55.91853713989258 L379.106689453125,55.40146255493164 L378.3025817871094,55.1723747253418 L377.1609802246094,55.29912567138672 L375.74761962890625,55.81633758544922 L374.20220947265625,56.71943283081055 L372.7219543457031,57.95379638671875 L371.5145568847656,59.40410614013672 L370.79278564453125,60.956783294677734 L370.69464111328125,62.47806167602539 L371.28656005859375,63.84730911254883 L372.5311279296875,64.97245788574219 L374.427001953125,65.75999450683594 L376.8209533691406,66.16010284423828 L379.4848327636719,66.20386505126953 L381.72479248046875,66.05392456054688 L383.16729736328125,65.87130737304688 M404.228515625,46.76700210571289 L404.3133544921875,46.93866729736328 L404.4634704589844,47.365447998046875 L404.643310546875,48.11709976196289 L404.78204345703125,49.19286346435547 L404.831787109375,50.563995361328125 L404.75238037109375,52.180877685546875 L404.5701904296875,54.006839752197266 L404.32244873046875,55.99221420288086 L404.054931640625,57.99385070800781 L403.81121826171875,59.833717346191406 L403.6390380859375,61.192832946777344 L403.542236328125,61.96323776245117 M400.38751220703125,47.26323699951172 L400.6216125488281,46.966285705566406 L401.1351318359375,46.54009246826172 L401.98468017578125,46.08450698852539 L403.1617431640625,45.7629508972168 L404.64654541015625,45.62466812133789 L406.38629150390625,45.71247100830078 L408.31036376953125,46.04875946044922 L410.34991455078125,46.671112060546875 L412.3938293457031,47.59080505371094 L414.31524658203125,48.797325134277344 L415.96185302734375,50.25413131713867 L417.177978515625,51.9151496887207 L417.8490905761719,53.717506408691406 L417.9234313964844,55.58201599121094 L417.4148864746094,57.41520309448242 L416.390869140625,59.11186981201172 L414.9433898925781,60.579620361328125 L413.171630859375,61.754234313964844 L411.16217041015625,62.592430114746094 L409.001953125,63.06808090209961 L406.81072998046875,63.18556594848633 L404.7447509765625,62.97659683227539 L402.95001220703125,62.496826171875 L401.606689453125,61.777366638183594 L400.7986755371094,60.87019348144531 L400.52117919921875,59.84504699707031 L400.5736389160156,58.9666748046875 L400.7459716796875,58.39155197143555 M429.8145751953125,56.591678619384766 L429.627197265625,56.30997085571289 L429.2503662109375,55.8729362487793 L428.645263671875,55.38353729248047 L427.81915283203125,55.02051544189453 L426.7542724609375,54.89375305175781 L425.4718933105469,55.07920837402344 L424.0293273925781,55.59741973876953 L422.5489501953125,56.442138671875 L421.19110107421875,57.56193161010742 L420.1332702636719,58.8542594909668 L419.51611328125,60.1884880065918 L419.4184875488281,61.404380798339844 L419.86163330078125,62.34165954589844 L420.8061218261719,62.89403533935547 L422.1597595214844,63.00382614135742 L423.7978210449219,62.667625427246094 L425.56671142578125,61.93391418457031 L427.2924499511719,60.876529693603516 L428.83197021484375,59.59354019165039 L430.0718994140625,58.2429313659668 L430.95831298828125,56.9926643371582 L431.5034484863281,55.9795036315918 L431.76702880859375,55.29227066040039 L431.81585693359375,54.96826934814453 L431.7049560546875,55.01087951660156 L431.4754638671875,55.45280838012695 L431.17169189453125,56.31753921508789 L430.85595703125,57.57343673706055 L430.62481689453125,59.112770080566406 L430.5501708984375,60.7618408203125 L430.65313720703125,62.32162857055664 L430.97589111328125,63.561279296875 L431.50244140625,64.31475067138672 L432.1875305175781,64.52232360839844 L432.824951171875,64.38521575927734 L433.2705993652344,64.139404296875 M440.84271240234375,47.21461486816406 L440.8807373046875,47.36425018310547 L440.9377136230469,47.7952880859375 L440.9834899902344,48.62408447265625 L440.9674072265625,49.87330627441406 L440.85552978515625,51.467079162597656 L440.6610107421875,53.30101776123047 L440.416015625,55.23256301879883 L440.20166015625,57.13852310180664 L440.06781005859375,58.89286804199219 L440.0065002441406,60.380924224853516 L439.9701232910156,61.517799377441406 L439.8863220214844,62.220035552978516 L439.6934509277344,62.440555572509766 L439.40087890625,62.2210807800293 L439.1148986816406,61.8156623840332 L438.90966796875,61.44829177856445 M435.992431640625,55.974952697753906 L436.1862487792969,55.81968307495117 L436.62774658203125,55.62091827392578 L437.38970947265625,55.440738677978516 L438.4786376953125,55.35480499267578 L439.88800048828125,55.35688018798828 L441.563720703125,55.430416107177734 L443.4425048828125,55.556129455566406 L445.40277099609375,55.72789001464844 L447.28643798828125,55.92045593261719 L448.7288818359375,56.0817985534668 L449.5908203125,56.18229675292969 M456.7638244628906,57.2498893737793 L456.72125244140625,56.991355895996094 L456.5553283691406,56.568485260009766 L456.170654296875,56.047386169433594 L455.48883056640625,55.57716751098633 L454.4637756347656,55.2558479309082 L453.12347412109375,55.16762924194336 L451.557373046875,55.35065460205078 L449.9027404785156,55.81406021118164 L448.3302001953125,56.527862548828125 L447.0098571777344,57.44778823852539 L446.06951904296875,58.51831817626953 L445.590576171875,59.650970458984375 L445.63031005859375,60.72886276245117 L446.19256591796875,61.6263427734375 L447.24267578125,62.22102737426758 L448.7008056640625,62.43767547607422 L450.4335632324219,62.26554489135742 L452.26715087890625,61.735809326171875 L454.05224609375,60.92443084716797 L455.63421630859375,59.93546676635742 L456.8929443359375,58.88450622558594 L457.76953125,57.90060043334961 L458.2811279296875,57.090457916259766 L458.50946044921875,56.52737808227539 L458.5543212890625,56.26554870605469 L458.4870910644531,56.336952209472656 L458.33935546875,56.76996994018555 L458.13201904296875,57.583587646484375 L457.924560546875,58.72465133666992 L457.8055725097656,60.08575439453125 L457.82574462890625,61.53889465332031 L458.0712890625,62.95039749145508 L458.5604248046875,64.19622039794922 L459.2585144042969,65.1884994506836 L459.9302978515625,65.834228515625 L460.4144287109375,66.1519775390625 M476.2359619140625,49.278602600097656 L476.0609130859375,48.830078125 L475.62469482421875,48.181705474853516 L474.83868408203125,47.50148391723633 L473.69110107421875,47.048160552978516 L472.23565673828125,46.89786911010742 L470.60577392578125,47.08223342895508 L468.9991455078125,47.5714111328125 L467.629638671875,48.34913635253906 L466.69158935546875,49.37754821777344 L466.3048400878906,50.606536865234375 L466.4981689453125,51.95741653442383 L467.2379150390625,53.35980987548828 L468.4474792480469,54.745933532714844 L470.01483154296875,56.08678436279297 L471.7933349609375,57.35189437866211 L473.6058349609375,58.52125930786133 L475.25823974609375,59.56085968017578 L476.59417724609375,60.45817184448242 L477.501220703125,61.207313537597656 L477.92449951171875,61.831966400146484 L477.8502197265625,62.34067153930664 L477.2845458984375,62.73618698120117 L476.2357177734375,63.01083755493164 L474.7454833984375,63.17253112792969 L472.8915710449219,63.22954559326172 L470.8104553222656,63.19643020629883 L468.66693115234375,63.09075164794922 L466.651611328125,62.91641616821289 L464.94891357421875,62.6968879699707 L463.6898498535156,62.462703704833984 L462.93499755859375,62.27345275878906 L462.6050720214844,62.156532287597656 M488.45892333984375,55.67182540893555 L488.24334716796875,55.48086929321289 L487.7816162109375,55.25432205200195 L487.01947021484375,55.1195182800293 L485.96795654296875,55.224918365478516 L484.66497802734375,55.61761474609375 L483.24127197265625,56.2946662902832 L481.86181640625,57.194786071777344 L480.7086181640625,58.2503776550293 L479.97125244140625,59.3930549621582 L479.77984619140625,60.53034973144531 L480.21466064453125,61.59074020385742 L481.291015625,62.487327575683594 L482.9505615234375,63.14165115356445 L485.0628662109375,63.501953125 L487.4600830078125,63.543800354003906 L489.95623779296875,63.263118743896484 L492.3734130859375,62.69165802001953 L494.54388427734375,61.85202407836914 L496.35870361328125,60.79294967651367 L497.756103515625,59.59198760986328 L498.7137451171875,58.36163330078125 L499.2896728515625,57.252017974853516 L499.5811767578125,56.38016891479492 L499.68902587890625,55.80144500732422 L499.6942138671875,55.54228591918945 L499.62841796875,55.606781005859375 L499.46563720703125,56.02238082885742 L499.20001220703125,56.83469009399414 L498.857177734375,58.0097541809082 L498.49755859375,59.432926177978516 L498.17950439453125,60.93670654296875 L497.9700927734375,62.2985725402832 L497.89361572265625,63.338897705078125 L497.9613037109375,63.976016998291016 L498.093994140625,64.2568130493164 L498.2213134765625,64.31094360351562 M500.06060791015625,48.827579498291016 L500.1256103515625,48.74589157104492 L500.265625,48.69189453125 L500.427734375,48.67765808105469 L500.55908203125,48.715267181396484 M505.1376953125,60.73495101928711 L505.48211669921875,60.67388916015625 L506.16351318359375,60.501808166503906 L507.19146728515625,60.19351577758789 L508.4356689453125,59.743743896484375 L509.7626953125,59.17919921875 L511.03253173828125,58.51957702636719 L512.1353149414062,57.80046463012695 L512.959228515625,57.05278396606445 L513.42724609375,56.342628479003906 L513.4695434570312,55.724525451660156 L513.046630859375,55.25994873046875 L512.169921875,54.99266815185547 L510.919677734375,54.99769973754883 L509.41497802734375,55.31624221801758 L507.84246826171875,55.97520065307617 L506.396240234375,56.94664764404297 L505.2420654296875,58.162052154541016 L504.51702880859375,59.51078796386719 L504.3109130859375,60.900264739990234 L504.65753173828125,62.19773864746094 L505.56756591796875,63.288726806640625 L506.9859619140625,64.0660400390625 L508.8043212890625,64.47295379638672 L510.8623046875,64.48282623291016 L512.9650268554688,64.12676239013672 L514.9114379882812,63.435508728027344 L516.5652465820312,62.471431732177734 L517.8460083007812,61.31077194213867 L518.756591796875,60.076026916503906 L519.3348388671875,58.88544464111328 L519.6473388671875,57.861942291259766 L519.7569580078125,57.07600402832031 L519.7421875,56.5841064453125 L519.6646728515625,56.416297912597656 L519.55419921875,56.597084045410156 L519.4122314453125,57.12672424316406 L519.2254028320312,57.9681510925293 L518.9954833984375,59.0125732421875 L518.7403564453125,60.13644790649414 L518.4995727539062,61.19484329223633 L518.283935546875,62.066654205322266 L518.1093139648438,62.68173599243164 L517.9772338867188,63.00747299194336 L517.90625,63.02150344848633 L517.9063720703125,62.719261169433594 L518.027587890625,62.10115051269531 L518.29052734375,61.1999626159668 L518.7153930664062,60.09125900268555 L519.3079833984375,58.88216781616211 L520.0787963867188,57.67721939086914 L521.010009765625,56.57718276977539 L522.1015625,55.65851974487305 L523.3201904296875,54.992801666259766 L524.61474609375,54.62782287597656 L525.9254760742188,54.58952331542969 L527.2042846679688,54.88957595825195 L528.3796997070312,55.52271270751953 L529.3712768554688,56.444705963134766 L530.1072998046875,57.60021209716797 L530.5404663085938,58.934181213378906 L530.6928100585938,60.345829010009766 L530.6574096679688,61.73487091064453 L530.558349609375,62.824832916259766 L530.4757080078125,63.48716735839844 M543.31982421875,56.53457260131836 L543.2959594726562,56.26666259765625 L543.1617431640625,55.89236831665039 L542.8255004882812,55.511688232421875 L542.2072143554688,55.275306701660156 L541.2844848632812,55.23713684082031 L540.073486328125,55.4365348815918 L538.669921875,55.876739501953125 L537.1908569335938,56.56068801879883 L535.7892456054688,57.458580017089844 L534.613525390625,58.51012420654297 L533.8123779296875,59.64488983154297 L533.491943359375,60.779457092285156 L533.7462768554688,61.81852722167969 L534.614013671875,62.668052673339844 L536.0758056640625,63.256317138671875 L538.0167846679688,63.52466583251953 L540.2755126953125,63.45606994628906 L542.631591796875,63.0596809387207 L544.900390625,62.367454528808594 L546.9489135742188,61.425880432128906 L548.6839599609375,60.29789733886719 L550.0452880859375,59.057369232177734 L550.9927978515625,57.80864334106445 L551.4747924804688,56.655643463134766 L551.4813232421875,55.69482421875 L551.0320434570312,54.9993896484375 L550.1904296875,54.62969970703125 L549.0606079101562,54.63055419921875 L547.7723999023438,55.03718566894531 L546.461181640625,55.84332275390625 L545.3124389648438,57.00282287597656 L544.5056762695312,58.404747009277344 L544.2575073242188,59.921958923339844 L544.7201538085938,61.398216247558594 L545.9489135742188,62.69414138793945 L547.9762573242188,63.69240951538086 L550.6627807617188,64.341064453125 L553.7098388671875,64.64151763916016 L556.3068237304688,64.71211242675781 L557.9876098632812,64.6751937866211 M587.5651245117188,49.73401641845703 L587.5632934570312,49.43937301635742 L587.4744262695312,48.98115539550781 L587.22314453125,48.43671417236328 L586.71875,47.94140625 L585.905517578125,47.54637908935547 L584.7479858398438,47.31711959838867 L583.2589111328125,47.29957962036133 L581.4776611328125,47.54259490966797 L579.4962768554688,48.07904052734375 L577.4008178710938,48.91548156738281 L575.3084716796875,50.042564392089844 L573.34228515625,51.44657516479492 L571.6451416015625,53.07625961303711 L570.3587036132812,54.85694122314453 L569.5906982421875,56.68220901489258 L569.3925170898438,58.451961517333984 L569.7919921875,60.068634033203125 L570.7726440429688,61.45824432373047 L572.2896118164062,62.560367584228516 L574.2694091796875,63.345603942871094 L576.59521484375,63.77467727661133 L579.1311645507812,63.85285186767578 L581.7461547851562,63.611602783203125 L584.3366088867188,63.08573532104492 L586.8140869140625,62.31385803222656 L589.114990234375,61.35752868652344 L591.16796875,60.270408630371094 L592.9021606445312,59.1432991027832 L594.2568969726562,58.095703125 L595.2053833007812,57.19343566894531 L595.756591796875,56.46205139160156 L595.9705810546875,55.920963287353516 L595.888427734375,55.58345031738281 L595.5435791015625,55.49327850341797 L594.97265625,55.72109603881836 L594.2083129882812,56.28701400756836 L593.323974609375,57.1705322265625 L592.4368286132812,58.31732940673828 L591.6699829101562,59.64992141723633 L591.1343383789062,61.07799530029297 L590.957275390625,62.501888275146484 L591.2189331054688,63.79796600341797 L591.9622802734375,64.83999633789062 L593.16748046875,65.51394653320312 L594.7550048828125,65.75637817382812 L596.5693359375,65.54832458496094 L598.4511108398438,64.91365051269531 L600.222412109375,63.910133361816406 L601.7141723632812,62.61867904663086 L602.7808837890625,61.135860443115234 L603.3262939453125,59.581478118896484 L603.2998046875,58.08794021606445 L602.7136840820312,56.77962875366211 L601.644287109375,55.768070220947266 L600.2109375,55.127323150634766 L598.5895385742188,54.933597564697266 L597.0034790039062,55.1803092956543 L595.6632690429688,55.79204177856445 L594.7595825195312,56.45872497558594 L594.304443359375,56.95665740966797 M606.5457763671875,54.52678298950195 L606.5682983398438,54.690860748291016 L606.586669921875,55.126216888427734 L606.5640258789062,55.92051696777344 L606.4601440429688,57.07289505004883 L606.2566528320312,58.49592208862305 L605.9931030273438,60.08204650878906 L605.7361450195312,61.69207000732422 L605.56005859375,63.17416000366211 L605.4915771484375,64.39596557617188 L605.514404296875,65.25533294677734 L605.58984375,65.67168426513672 L605.7032470703125,65.60527801513672 L605.8759155273438,65.0459213256836 L606.12646484375,64.010009765625 L606.4810180664062,62.60578918457031 L606.9645385742188,60.99042510986328 L607.5993041992188,59.31216812133789 L608.4113159179688,57.6997184753418 L609.4013671875,56.25648498535156 L610.530029296875,55.06975555419922 L611.7361450195312,54.246700286865234 L612.9369506835938,53.86937713623047 L614.034423828125,53.96427917480469 L614.9589233398438,54.50798034667969 L615.650390625,55.427490234375 L616.0911865234375,56.627708435058594 L616.2802734375,57.9962043762207 L616.259033203125,59.38926696777344 L616.077880859375,60.65239334106445 L615.8194580078125,61.66206741333008 L615.5653686523438,62.3349723815918 L615.3800048828125,62.627601623535156 L615.2997436523438,62.52720642089844 L615.3689575195312,62.0354118347168 L615.6150512695312,61.1815185546875 L616.0784301757812,60.059295654296875 L616.778076171875,58.79269790649414 L617.7080078125,57.50598907470703 L618.8505249023438,56.31157684326172 L620.1570434570312,55.30451965332031 L621.5618896484375,54.561859130859375 L622.9871826171875,54.163063049316406 L624.337158203125,54.1571159362793 L625.5321655273438,54.55629348754883 L626.5281372070312,55.3331184387207 L627.2756958007812,56.42683410644531 L627.7646484375,57.73761749267578 L628.0072631835938,59.19145584106445 L628.0533447265625,60.67621612548828 L627.9851684570312,62.07658767700195 L627.89794921875,63.14042663574219 L627.8368530273438,63.77204513549805 M634.0574340820312,54.6111946105957 L634.19580078125,54.784873962402344 L634.37646484375,55.23587417602539 L634.5182495117188,56.053775787353516 L634.50830078125,57.22054672241211 L634.3237915039062,58.63901138305664 L633.9671020507812,60.14753341674805 L633.521484375,61.53865051269531 L633.087890625,62.68418502807617 L632.759521484375,63.474361419677734 L632.577880859375,63.83321762084961 L632.5670776367188,63.74518585205078 L632.7174072265625,63.20071029663086 L633.04248046875,62.205196380615234 L633.547607421875,60.891571044921875 L634.2479248046875,59.3946647644043 L635.1151123046875,57.846832275390625 L636.1270141601562,56.38392639160156 L637.2439575195312,55.09764862060547 L638.4005126953125,54.06181335449219 L639.5275268554688,53.38377380371094 L640.5556640625,53.141292572021484 L641.4158325195312,53.366912841796875 L642.071044921875,54.0684814453125 L642.4859619140625,55.20097732543945 L642.6234741210938,56.65254592895508 L642.5090942382812,58.27057647705078 L642.2008056640625,59.86241912841797 L641.8099365234375,61.23740005493164 L641.4502563476562,62.264530181884766 L641.1917114257812,62.8680305480957 L641.0617065429688,63.007408142089844 L641.0899047851562,62.69754409790039 L641.3048706054688,61.95703125 L641.7540283203125,60.85465621948242 L642.4537353515625,59.51012420654297 L643.3976440429688,58.06313705444336 L644.548828125,56.653564453125 L645.8477172851562,55.42558670043945 L647.2300415039062,54.479801177978516 L648.6287231445312,53.89453887939453 L649.9647827148438,53.72060775756836 L651.1793212890625,53.978580474853516 L652.1993408203125,54.64925765991211 L652.9661254882812,55.69772720336914 L653.464599609375,57.05469512939453 L653.7183227539062,58.608036041259766 L653.7936401367188,60.21711730957031 L653.8153686523438,61.72472381591797 L653.8772583007812,62.97031021118164 L654.0462646484375,63.86016845703125 L654.2586059570312,64.37162017822266 L654.4376831054688,64.58405303955078 M657.7877197265625,55.54973220825195 L657.7567749023438,55.59055709838867 L657.7274780273438,55.82210922241211 L657.7123413085938,56.35633850097656 L657.72998046875,57.231597900390625 L657.78759765625,58.36900329589844 L657.8939819335938,59.63801574707031 L658.0772705078125,60.90041732788086 L658.4014282226562,62.048072814941406 L658.90771484375,62.98134231567383 L659.6245727539062,63.60698318481445 L660.5464477539062,63.8552360534668 L661.6384887695312,63.679649353027344 L662.828125,63.08207702636719 L664.0400390625,62.12039566040039 L665.1671752929688,60.89725112915039 L666.1168212890625,59.54035949707031 L666.8335571289062,58.199607849121094 L667.3265991210938,57.009002685546875 L667.6319580078125,56.07733917236328 L667.8082885742188,55.47457504272461 L667.8886108398438,55.25692367553711 L667.8816528320312,55.4333381652832 L667.792724609375,56.00254440307617 L667.6432495117188,56.934059143066406 L667.4862060546875,58.143253326416016 L667.3873901367188,59.501216888427734 L667.4009399414062,60.881649017333984 L667.5797729492188,62.128021240234375 L667.9343872070312,63.12465286254883 L668.4273681640625,63.812889099121094 L668.8944702148438,64.19124603271484 L669.22216796875,64.33568572998047 M673.129638671875,56.656349182128906 L673.1845092773438,56.73350143432617 L673.2711791992188,57.01023864746094 L673.34375,57.58808517456055 L673.3416748046875,58.488929748535156 L673.2313842773438,59.62886428833008 L673.0272827148438,60.84694290161133 L672.790771484375,61.993309020996094 L672.5800170898438,62.93327713012695 L672.4259643554688,63.57524490356445 L672.3507690429688,63.85828399658203 L672.3751831054688,63.75153350830078 L672.5367431640625,63.23634338378906 L672.86474609375,62.36360549926758 L673.3690795898438,61.21133804321289 L674.0465698242188,59.89639663696289 L674.8839111328125,58.54628372192383 L675.8744506835938,57.287601470947266 L677.0048217773438,56.21918869018555 L678.2305297851562,55.42829895019531 L679.4916381835938,54.969825744628906 L680.7355346679688,54.87744903564453 L681.9014892578125,55.1528434753418 L682.9462280273438,55.78279113769531 L683.8311157226562,56.72178649902344 L684.5103759765625,57.89234924316406 L684.9588012695312,59.19149398803711 L685.2031860351562,60.504512786865234 L685.31640625,61.70406723022461 L685.3917846679688,62.684207916259766 L685.510498046875,63.378448486328125 L685.6492309570312,63.77314376831055 L685.7655029296875,63.93477249145508 M690.3177490234375,57.37392044067383 L690.3504028320312,57.449058532714844 L690.3746948242188,57.71624755859375 L690.353759765625,58.27271270751953 L690.255615234375,59.14338684082031 L690.103271484375,60.257591247558594 L689.9444580078125,61.479793548583984 L689.8427734375,62.686737060546875 L689.8248901367188,63.713382720947266 L689.8701782226562,64.42304229736328 L689.936767578125,64.73474884033203 L689.9900512695312,64.75508880615234 L690.013916015625,64.6346435546875 M691.1632690429688,50.998626708984375 L691.300537109375,50.818729400634766 L691.5359497070312,50.586082458496094 L691.7847900390625,50.37778854370117 L691.9620971679688,50.27094650268555 M700.7025756835938,49.5107421875 L700.6753540039062,49.9420280456543 L700.5758056640625,50.77151870727539 L700.3724365234375,52.01669692993164 L700.061767578125,53.56235885620117 L699.679931640625,55.32566833496094 L699.2833251953125,57.20636749267578 L698.94091796875,59.105281829833984 L698.722900390625,60.87908172607422 L698.6712646484375,62.38982391357422 L698.7811889648438,63.513057708740234 L698.952392578125,64.18769836425781 L699.09765625,64.48603057861328 M695.3351440429688,56.187068939208984 L695.6476440429688,56.12815856933594 L696.3846435546875,56.0787353515625 L697.6354370117188,56.090057373046875 L699.37255859375,56.19969177246094 L701.4176025390625,56.37329864501953 L703.51513671875,56.55970764160156 L705.176513671875,56.69849395751953 L706.1846313476562,56.7694206237793 M708.6022338867188,55.866485595703125 L708.7342529296875,56.03548049926758 L708.99658203125,56.37397766113281 L709.3840942382812,56.90289306640625 L709.8787841796875,57.58196258544922 L710.4915161132812,58.373477935791016 L711.2388305664062,59.213775634765625 L712.1348266601562,60.03547286987305 L713.2280883789062,60.72056198120117 L714.48681640625,61.18021774291992 L715.8616943359375,61.365840911865234 L717.0262451171875,61.361907958984375 L717.7894287109375,61.278011322021484 M721.1591186523438,57.054840087890625 L721.1033935546875,57.007591247558594 L720.9298706054688,57.091224670410156 L720.5646362304688,57.46635055541992 L719.9027099609375,58.248138427734375 L718.9039306640625,59.426063537597656 L717.5657958984375,60.91196823120117 L715.9786376953125,62.596405029296875 L714.277587890625,64.38685607910156 L712.6286010742188,66.20903778076172 L711.1309204101562,67.97228240966797 L709.8992309570312,69.57792663574219 L708.9783935546875,70.91072082519531 L708.3912963867188,71.88313293457031 L708.0988159179688,72.47312927246094 L708.0101318359375,72.74439239501953 L708.0128784179688,72.81636047363281 M753.1463012695312,50.831451416015625 L752.8687133789062,50.43717956542969 L752.2638549804688,49.880271911621094 L751.2464599609375,49.31398010253906 L749.8069458007812,48.967926025390625 L747.9977416992188,48.92350387573242 L745.9592895507812,49.21758270263672 L743.9251098632812,49.8294677734375 L742.1881103515625,50.7424430847168 L741.0332641601562,51.89738845825195 L740.6273193359375,53.2207145690918 L741.02783203125,54.6448860168457 L742.1449584960938,56.11932373046875 L743.7994995117188,57.60295104980469 L745.7380981445312,59.06688690185547 L747.6890869140625,60.47589874267578 L749.3508911132812,61.783695220947266 L750.4716186523438,62.94976043701172 L750.8413696289062,63.94439697265625 L750.3649291992188,64.75349426269531 L749.0288696289062,65.39514923095703 L746.94287109375,65.89054107666016 L744.30517578125,66.24378204345703 L741.3949584960938,66.4521713256836 L738.5196533203125,66.474365234375 L736.0132446289062,66.29895782470703 L734.1032104492188,65.97181701660156 L732.9296264648438,65.63629913330078 L732.39501953125,65.39616394042969 M758.1826171875,53.959388732910156 L758.0906372070312,54.42728805541992 L757.9175415039062,55.3422737121582 L757.6695556640625,56.68956756591797 L757.382568359375,58.301795959472656 L757.0911865234375,60.034423828125 L756.8309326171875,61.72771453857422 L756.619384765625,63.24707794189453 L756.47021484375,64.46832275390625 L756.3758544921875,65.25625610351562 L756.3206787109375,65.53543853759766 L756.27685546875,65.2795181274414 L756.2084350585938,64.51111602783203 L756.0735473632812,63.2995491027832 L755.87451171875,61.76576232910156 L755.639404296875,60.00595474243164 L755.450927734375,58.13754653930664 L755.4017944335938,56.2396125793457 L755.5702514648438,54.38522720336914 L756.009765625,52.640899658203125 L756.7634887695312,51.08299255371094 L757.8522338867188,49.761962890625 L759.2758178710938,48.74565887451172 L760.9915771484375,48.06830978393555 L762.9006958007812,47.761287689208984 L764.8621826171875,47.83296203613281 L766.70068359375,48.25776290893555 L768.256591796875,48.97811508178711 L769.3735961914062,49.90727996826172 L769.9354248046875,50.93244171142578 L769.868896484375,51.95128631591797 L769.1516723632812,52.868526458740234 L767.8257446289062,53.61492156982422 L766.0408325195312,54.15613555908203 L764.0028076171875,54.484439849853516 L761.9562377929688,54.62924575805664 L760.144287109375,54.64680099487305 L758.7242431640625,54.58527374267578 L757.7606811523438,54.49092483520508 L757.2752075195312,54.41630554199219 L757.239013671875,54.432220458984375 L757.6226196289062,54.62974548339844 L758.4205322265625,55.096866607666016 L759.588134765625,55.8720817565918 L761.033203125,56.929046630859375 L762.661865234375,58.19705581665039 L764.3665161132812,59.57467269897461 L766.0709838867188,60.95698928833008 L767.75634765625,62.25695037841797 L769.3737182617188,63.38590621948242 L770.8413696289062,64.27989959716797 L771.9351196289062,64.86763763427734 L772.5714111328125,65.16695404052734 M777.8511962890625,53.116065979003906 L777.9236450195312,53.09733963012695 L777.9940185546875,53.22845458984375 L778.0079345703125,53.65150451660156 L777.900634765625,54.47445297241211 L777.686767578125,55.67742919921875 L777.3934936523438,57.16585922241211 L777.0732421875,58.81087112426758 L776.7667236328125,60.4635009765625 L776.5109252929688,61.968074798583984 L776.3189086914062,63.20390701293945 L776.2161865234375,64.07679748535156 L776.2203369140625,64.50357818603516 L776.3590087890625,64.4312744140625 L776.65380859375,63.81609344482422 L777.10888671875,62.65968704223633 L777.6871948242188,61.05519104003906 L778.3170776367188,59.15734100341797 L778.9407348632812,57.10860824584961 L779.5346069335938,55.05104446411133 L780.1032104492188,53.096534729003906 L780.6474609375,51.36420440673828 L781.1585693359375,49.966529846191406 L781.5864868164062,49.00291442871094 L781.9026489257812,48.53306198120117 L782.1232299804688,48.60688018798828 L782.294921875,49.23257827758789 L782.4658203125,50.385887145996094 L782.6897583007812,51.95758056640625 L782.983642578125,53.770721435546875 L783.3766479492188,55.62552261352539 L783.89208984375,57.34369659423828 L784.5386352539062,58.78397750854492 L785.30322265625,59.85470962524414 L786.16845703125,60.48997497558594 L787.1110229492188,60.641761779785156 L788.1327514648438,60.29426193237305 L789.2234497070312,59.4716911315918 L790.3599853515625,58.26166534423828 L791.4951782226562,56.79423141479492 L792.5877685546875,55.23057556152344 L793.6029052734375,53.718875885009766 L794.5007934570312,52.384483337402344 L795.2392578125,51.30400848388672 L795.7791137695312,50.52824401855469 L796.0899047851562,50.08699035644531 L796.1947631835938,50.02935791015625 L796.1514892578125,50.395416259765625 L795.9949951171875,51.222869873046875 L795.7484130859375,52.482933044433594 L795.4207763671875,54.09039306640625 L795.0112915039062,55.916343688964844 L794.5904541015625,57.88740539550781 L794.2681884765625,59.978294372558594 L794.084228515625,61.73380661010742 L794.0274658203125,62.90544128417969 " fill="none" stroke="black" stroke-linecap="round" stroke-width="2" /></svg>