<?xml version="1.0" encoding="utf-8" ?>
<svg baseProfile="full" height="100%" version="1.1" viewBox="0,0,1000,120" width="100%" xmlns="http://www.w3.org/2000/svg" xmlns:ev="http://www.w3.org/2001/xml-events" xmlns:xlink="http://www.w3.org/1999/xlink"><defs /><rect fill="white" height="120" width="1000" x="0" y="0" /><path d="M0,0 M466.42559814453125,45.155235290527344 L466.46588134765625,45.08749771118164 L466.52301025390625,45.00544738769531 L466.5736083984375,45.02047348022461 L466.558349609375,45.309383392333984 L466.416015625,46.05426025390625 L466.1312255859375,47.347957611083984 L465.71142578125,49.16581344604492 L465.18707275390625,51.37869644165039 L464.62347412109375,53.81730651855469 L464.05340576171875,56.3017578125 L463.51361083984375,58.696144104003906 L463.0392761230469,60.897525787353516 L462.63507080078125,62.82161331176758 L462.3307189941406,64.41075134277344 L462.1358642578125,65.65082550048828 L462.0500183105469,66.45555877685547 L462.0830078125,66.78153228759766 L462.2219543457031,66.64157104492188 L462.37982177734375,66.27513122558594 L462.5111999511719,65.9095230102539 M471.52685546875,52.696449279785156 L471.6889953613281,52.53854751586914 L471.882568359375,52.394447326660156 L472.03009033203125,52.430274963378906 L472.01324462890625,52.86457824707031 L471.8077087402344,53.82106399536133 L471.3893737792969,55.32154083251953 L470.82720947265625,57.26927947998047 L470.1805419921875,59.48312759399414 L469.56329345703125,61.69477844238281 L469.05078125,63.64213943481445 L468.70306396484375,65.13432312011719 L468.5339660644531,66.06482696533203 L468.546875,66.37992858886719 L468.7427062988281,66.04812622070312 L469.1420593261719,65.02487182617188 L469.7680969238281,63.350975036621094 L470.6529541015625,61.21565246582031 L471.7911071777344,58.915077209472656 L473.1051940917969,56.7542610168457 L474.46710205078125,54.953369140625 L475.7048645019531,53.61522674560547 L476.70538330078125,52.79970932006836 L477.39703369140625,52.57830810546875 L477.77301025390625,53.01633071899414 L477.856201171875,54.144195556640625 L477.6656799316406,55.864524841308594 L477.24310302734375,57.974029541015625 L476.70147705078125,60.16939163208008 L476.15777587890625,62.145015716552734 L475.72735595703125,63.68791198730469 L475.4764404296875,64.71363067626953 L475.4126892089844,65.18364715576172 L475.5445556640625,65.08470153808594 L475.9098815917969,64.3398666381836 L476.56689453125,62.906036376953125 L477.5701904296875,60.901676177978516 L478.9214172363281,58.61481857299805 L480.5550231933594,56.4061164855957 L482.31939697265625,54.574119567871094 L484.0345458984375,53.270751953125 L485.5391540527344,52.53675842285156 L486.7351379394531,52.398677825927734 L487.5691223144531,52.891883850097656 L488.0447692871094,54.04935836791992 L488.1709899902344,55.80442810058594 L488.0101623535156,57.98338317871094 L487.6727600097656,60.316741943359375 L487.3095397949219,62.5303840637207 L487.03289794921875,64.3869857788086 L486.900634765625,65.76146697998047 L486.8995361328125,66.66357421875 L486.96368408203125,67.11026000976562 L487.0152282714844,67.15523529052734 L487.0177307128906,66.88504791259766 L486.9814758300781,66.50933837890625 L486.93328857421875,66.1860122680664 M506.9210205078125,47.45384979248047 M505.39923095703125,49.269290924072266 L505.1794128417969,50.27262878417969 L504.8484802246094,52.027069091796875 L504.4585876464844,54.43345260620117 L504.1134338378906,57.12027359008789 L503.84539794921875,59.8952522277832 L503.6735534667969,62.522457122802734 L503.5827941894531,64.79560852050781 L503.5679931640625,66.5251235961914 L503.5870666503906,67.65778350830078 L503.6050109863281,68.24490356445312 L503.59588623046875,68.36837768554688 L503.5719299316406,68.04692077636719 L503.54693603515625,67.1805419921875 L503.5655517578125,65.65312194824219 L503.66802978515625,63.48500061035156 L503.8836669921875,60.850746154785156 L504.22979736328125,58.01026153564453 L504.7286376953125,55.20587158203125 L505.3890686035156,52.58150863647461 L506.24468994140625,50.213558197021484 L507.3138122558594,48.182464599609375 L508.563232421875,46.58216857910156 L509.92138671875,45.505157470703125 L511.280517578125,45.0 L512.5054931640625,45.055076599121094 L513.4678955078125,45.603477478027344 L514.030517578125,46.54974365234375 L514.0718994140625,47.78319549560547 L513.5340576171875,49.20100784301758 L512.4487915039062,50.698516845703125 L510.94134521484375,52.17491912841797 L509.230224609375,53.51197052001953 L507.5511779785156,54.59590530395508 L506.1171875,55.33869934082031 L505.12451171875,55.679927825927734 L504.6686706542969,55.63345718383789 L504.7310791015625,55.296573638916016 L505.0527038574219,54.8939094543457 L505.3876037597656,54.58714294433594 M517.069091796875,54.90162658691406 L517.1137084960938,54.58690643310547 L517.2164916992188,54.0621337890625 L517.381591796875,53.40015411376953 L517.5924682617188,52.75017547607422 L517.8223266601562,52.17924118041992 L518.049560546875,51.70634460449219 L518.2589111328125,51.325218200683594 L518.4526977539062,51.0339241027832 L518.6256103515625,50.839027404785156 L518.7589111328125,50.7636604309082 L518.8187866210938,50.860408782958984 L518.7733764648438,51.21086883544922 L518.583740234375,51.90214157104492 L518.2310180664062,52.987632751464844 L517.71142578125,54.45161819458008 L517.0316772460938,56.2164421081543 L516.223876953125,58.18119430541992 L515.3555297851562,60.238685607910156 L514.5174560546875,62.23737716674805 L513.8052978515625,64.00452423095703 L513.295654296875,65.39006042480469 L513.0296020507812,66.28827667236328 L513.0138549804688,66.65833282470703 L513.2486572265625,66.47705841064453 L513.736572265625,65.69234466552734 L514.460693359375,64.28781127929688 L515.3897705078125,62.38460159301758 L516.4641723632812,60.22208786010742 L517.6004028320312,58.10906982421875 L518.6842651367188,56.29337692260742 L519.6148681640625,54.90398025512695 L520.3117065429688,53.934486389160156 L520.74755859375,53.35390853881836 L520.936767578125,53.15257263183594 L520.9234008789062,53.3716926574707 L520.718994140625,54.071903228759766 L520.3603515625,55.301021575927734 L519.8949584960938,56.9780387878418 L519.4131469726562,58.932891845703125 L519.0340576171875,60.94435501098633 L518.86474609375,62.783119201660156 L518.9490966796875,64.26166534423828 L519.3078002929688,65.27556610107422 L519.9113159179688,65.75542449951172 L520.7179565429688,65.6694107055664 L521.6929321289062,65.01142120361328 L522.7938232421875,63.807376861572266 L523.96484375,62.13349151611328 L525.1536254882812,60.1513671875 L526.2972412109375,58.0792350769043 L527.331298828125,56.15141677856445 L528.2017211914062,54.557533264160156 L528.8626708984375,53.38432693481445 L529.3145141601562,52.618106842041016 L529.5613403320312,52.20777130126953 L529.6228637695312,52.14800262451172 L529.5222778320312,52.51628494262695 L529.2733154296875,53.440345764160156 L528.8784790039062,54.95904541015625 L528.4097290039062,56.96882629394531 L527.9248657226562,59.22160720825195 L527.501220703125,61.41541290283203 L527.2102661132812,63.278175354003906 L527.0665283203125,64.6530990600586 L527.0283203125,65.52204895019531 L527.0632934570312,65.96082305908203 L527.1148681640625,66.03363800048828 L527.1666259765625,65.73016357421875 L527.2567138671875,64.95555877685547 L527.4334106445312,63.62169647216797 L527.7593994140625,61.79341506958008 L528.2792358398438,59.67009735107422 L528.9869384765625,57.50261306762695 L529.8555908203125,55.5144157409668 L530.850341796875,53.82713317871094 L531.953125,52.488563537597656 L533.1234130859375,51.52503967285156 L534.286865234375,50.923851013183594 L535.2052001953125,50.6226921081543 L535.7674560546875,50.525428771972656 M543.8245849609375,52.667022705078125 L543.8485107421875,52.54867172241211 L543.8416748046875,52.34346008300781 L543.751708984375,52.07709503173828 L543.5155029296875,51.8115234375 L543.1056518554688,51.61433410644531 L542.50390625,51.55134582519531 L541.7094116210938,51.693870544433594 L540.7288818359375,52.13566970825195 L539.5863647460938,52.95775604248047 L538.3218383789062,54.21142578125 L537.0239868164062,55.90861129760742 L535.8029174804688,57.95539093017578 L534.798095703125,60.15013885498047 L534.1085815429688,62.23316955566406 L533.79296875,63.95406723022461 L533.8477783203125,65.15354919433594 L534.2257690429688,65.77972412109375 L534.8682861328125,65.83399200439453 L535.7456665039062,65.31916809082031 L536.8157958984375,64.23954010009766 L538.0451049804688,62.661861419677734 L539.3753051757812,60.738250732421875 L540.7084350585938,58.69426345825195 L541.9497680664062,56.776153564453125 L543.0031127929688,55.177955627441406 L543.7957763671875,53.98392105102539 L544.320068359375,53.19115447998047 L544.6165771484375,52.73880386352539 L544.730224609375,52.58858108520508 L544.7090454101562,52.7598762512207 L544.5612182617188,53.32154846191406 L544.281982421875,54.32179641723633 L543.895263671875,55.735626220703125 L543.4605712890625,57.46566390991211 L543.0274047851562,59.38295364379883 L542.6425170898438,61.33769989013672 L542.34130859375,63.179725646972656 L542.1334838867188,64.76901245117188 L542.0196533203125,66.00691986083984 L542.009765625,66.83605194091797 L542.107421875,67.23091125488281 L542.3226318359375,67.1605224609375 L542.6900634765625,66.59425354003906 L543.2379150390625,65.542236328125 L543.9833984375,64.11438751220703 L544.9308471679688,62.453094482421875 L546.0569458007812,60.694740295410156 L547.3186645507812,58.91851806640625 L548.6622924804688,57.17234802246094 L550.0171508789062,55.501712799072266 L551.3118896484375,53.98837661743164 L552.4847412109375,52.71134567260742 L553.4816284179688,51.72727584838867 L554.2788696289062,51.04603958129883 L554.878662109375,50.65060806274414 L555.2910766601562,50.49348449707031 L555.533203125,50.53419876098633 L555.6196899414062,50.74073028564453 L555.536865234375,51.080448150634766 L555.28125,51.53843307495117 L554.8546142578125,52.10265350341797 L554.2582397460938,52.76296615600586 L553.5355834960938,53.54121398925781 L552.7271118164062,54.4614143371582 L551.8850708007812,55.5213623046875 L551.0917358398438,56.710391998291016 L550.41796875,57.982967376708984 L549.919189453125,59.274803161621094 L549.6846313476562,60.54486083984375 L549.7283935546875,61.75813293457031 L550.0481567382812,62.88201141357422 L550.5882568359375,63.90434646606445 L551.2254028320312,64.80535888671875 L551.8140869140625,65.56304931640625 L552.250244140625,66.18334197998047 L552.4327392578125,66.68848419189453 L552.3076171875,67.11869812011719 L551.8407592773438,67.51185607910156 L551.0252685546875,67.87934112548828 L549.8584594726562,68.17771911621094 L548.3487548828125,68.34757995605469 L546.9537963867188,68.39920806884766 L545.96435546875,68.37726593017578 " fill="none" stroke="red" stroke-linecap="round" stroke-width="1" /></svg>